<svg width="63" height="62" viewBox="0 0 63 62" fill="none" xmlns="http://www.w3.org/2000/svg">
<g filter="url(#filter0_i_271_608)">
<path d="M26.3474 2.89386C28.699 -0.964605 34.301 -0.964606 36.6526 2.89386L39.6116 7.7491C40.8488 9.77927 43.1629 10.8937 45.5216 10.5952L51.1625 9.88146C55.6453 9.31423 59.1381 13.6941 57.5876 17.9383L55.6365 23.279C54.8207 25.5121 55.3922 28.0161 57.0962 29.6741L61.1712 33.6393C64.4097 36.7905 63.1631 42.2521 58.8781 43.6861L53.4862 45.4905C51.2316 46.245 49.6302 48.2531 49.3963 50.619L48.837 56.2773C48.3925 60.7739 43.3452 63.2046 39.5524 60.7485L34.7798 57.6579C32.7842 56.3657 30.2158 56.3657 28.2202 57.6579L23.4476 60.7485C19.6548 63.2046 14.6075 60.7739 14.163 56.2773L13.6037 50.619C13.3698 48.2531 11.7684 46.245 9.51381 45.4905L4.12187 43.6861C-0.163124 42.2521 -1.40971 36.7905 1.82876 33.6393L5.90382 29.6741C7.60777 28.0161 8.1793 25.5121 7.36348 23.279L5.41241 17.9383C3.86188 13.6941 7.35473 9.31423 11.8375 9.88146L17.4784 10.5952C19.8371 10.8937 22.1512 9.77927 23.3884 7.7491L26.3474 2.89386Z" fill="url(#paint0_linear_271_608)"/>
</g>
<defs>
<filter id="filter0_i_271_608" x="0" y="0" width="63" height="65.7474" filterUnits="userSpaceOnUse" color-interpolation-filters="sRGB">
<feFlood flood-opacity="0" result="BackgroundImageFix"/>
<feBlend mode="normal" in="SourceGraphic" in2="BackgroundImageFix" result="shape"/>
<feColorMatrix in="SourceAlpha" type="matrix" values="0 0 0 0 0 0 0 0 0 0 0 0 0 0 0 0 0 0 127 0" result="hardAlpha"/>
<feOffset dy="4"/>
<feGaussianBlur stdDeviation="2"/>
<feComposite in2="hardAlpha" operator="arithmetic" k2="-1" k3="1"/>
<feColorMatrix type="matrix" values="0 0 0 0 0.144236 0 0 0 0 0.516667 0 0 0 0 0.422942 0 0 0 0.46 0"/>
<feBlend mode="normal" in2="shape" result="effect1_innerShadow_271_608"/>
</filter>
<linearGradient id="paint0_linear_271_608" x1="57.6894" y1="7.01025" x2="16.8339" y2="63.5794" gradientUnits="userSpaceOnUse">
<stop stop-color="#B4D1D4"/>
<stop offset="1" stop-color="#B4D1D4" stop-opacity="0"/>
</linearGradient>
</defs>
</svg>
