<svg width="19" height="19" viewBox="0 0 19 19" fill="none" xmlns="http://www.w3.org/2000/svg">
<path d="M8.45339 0.929672C8.60048 -0.310025 10.3995 -0.31003 10.5466 0.929667L11.2467 6.82986C11.3041 7.31355 11.6854 7.6949 12.1691 7.75229L18.0693 8.45236C19.309 8.59945 19.309 10.3985 18.0693 10.5456L12.1691 11.2456C11.6854 11.303 11.3041 11.6844 11.2467 12.1681L10.5466 18.0683C10.3995 19.308 8.60048 19.308 8.45339 18.0683L7.75332 12.1681C7.69593 11.6844 7.31458 11.303 6.83089 11.2456L0.930702 10.5456C-0.308995 10.3985 -0.309 8.59945 0.930696 8.45236L6.83089 7.75229C7.31458 7.69491 7.69593 7.31355 7.75332 6.82986L8.45339 0.929672Z" fill="#F9D64D"/>
</svg>
