<svg width="15" height="11" viewBox="0 0 15 11" fill="none" xmlns="http://www.w3.org/2000/svg">
<path fill-rule="evenodd" clip-rule="evenodd" d="M13.4554 0H7.50356H1.52339C0.680209 0 0 0.689315 0 1.56003V9.44002C0 9.65767 0.0354275 9.86806 0.120454 10.064C0.41096 10.688 0.899857 11 1.57299 11H13.427H13.4908C14.3552 10.9783 15 10.2962 15 9.41095V1.57454C15 1.4657 14.9929 1.35687 14.9717 1.24803C14.8158 0.493404 14.2136 0 13.4554 0ZM1.55881 0.8125H7.51062C9.49456 0.8125 11.4856 0.8125 13.4766 0.819753C13.838 0.819753 14.1214 1.05195 14.1994 1.40749C14.2136 1.46553 14.2136 1.53083 14.2136 1.58887V1.58888V9.42532C14.2136 9.86789 13.8947 10.1872 13.4624 10.1872H1.54464C1.11242 10.1872 0.800659 9.86069 0.800659 9.41805V1.58162C0.800659 1.1245 1.10534 0.8125 1.55881 0.8125Z" fill="#F0E5C9"/>
<path d="M9.41066 5.76161C9.60853 5.92091 9.79226 6.07297 9.97599 6.21779C11.1138 7.13015 12.2515 8.04973 13.3893 8.96214C13.5872 9.1214 13.6295 9.36761 13.4882 9.54863C13.3398 9.7369 13.0995 9.75858 12.9017 9.59932C11.5731 8.52766 10.2445 7.46324 8.91597 6.39157C8.88769 6.36985 8.8594 6.34812 8.81704 6.31916C8.42129 6.59432 7.98311 6.74637 7.49549 6.73914C7.01494 6.73914 6.5768 6.59432 6.18105 6.31192C5.82063 6.60155 5.46729 6.88394 5.11395 7.16634C4.11044 7.97736 3.10694 8.78105 2.09637 9.59207C1.8985 9.7514 1.65116 9.72964 1.50983 9.54138C1.36849 9.35311 1.41795 9.11415 1.60876 8.95489C2.92321 7.90491 4.22351 6.86225 5.53089 5.81229C5.54503 5.79781 5.55916 5.79057 5.58036 5.76885C5.48142 5.67472 5.38248 5.58058 5.28355 5.48646C4.04684 4.3279 2.8172 3.16935 1.58756 2.01804C1.40382 1.84426 1.38969 1.59807 1.53809 1.42428C1.69356 1.2505 1.93384 1.2505 2.11757 1.42428C3.58042 2.80006 5.04328 4.17584 6.51319 5.54438C7.07148 6.06573 7.92661 6.06573 8.48483 5.54438C9.94067 4.17584 11.3964 2.8073 12.8593 1.44601C12.9299 1.38084 13.0218 1.33015 13.1137 1.30843C13.2904 1.27223 13.4529 1.36636 13.5236 1.52566C13.6013 1.6922 13.566 1.87322 13.4317 2.00356C13.1349 2.28596 12.838 2.56111 12.5412 2.84351C11.5237 3.79932 10.513 4.74788 9.49545 5.69644C9.4742 5.71817 9.44598 5.73265 9.41066 5.76161Z" fill="#F0E5C9"/>
</svg>
