<svg width="122" height="25" viewBox="0 0 122 25" fill="none" xmlns="http://www.w3.org/2000/svg">
<path d="M27.2677 3.55277C26.2657 4.02273 25.188 4.33631 24.0512 4.48468C25.2069 3.75808 26.0961 2.5992 26.5134 1.2302C25.4319 1.90146 24.2337 2.39469 22.959 2.65453C21.9411 1.5117 20.4892 0.802734 18.8806 0.802734C15.7905 0.802734 13.2859 3.43166 13.2859 6.67332C13.2859 7.13206 13.3366 7.57877 13.432 8.01264C8.78327 7.76563 4.66012 5.42542 1.90177 1.8742C1.41705 2.74195 1.14439 3.75808 1.14439 4.83034C1.14439 6.8682 2.12974 8.66226 3.63237 9.71928C2.71519 9.68961 1.85178 9.41934 1.09592 8.98626C1.09592 9.00391 1.09592 9.03037 1.09592 9.05523C1.09592 11.9031 3.02495 14.2746 5.58185 14.8143C5.11455 14.9499 4.62074 15.0253 4.11178 15.0253C3.75052 15.0253 3.39834 14.982 3.05752 14.917C3.76945 17.2444 5.83481 18.9454 8.28189 18.9959C6.36724 20.5678 3.95576 21.5094 1.33374 21.5094C0.880826 21.5094 0.437762 21.4821 0 21.426C2.47737 23.0869 5.41901 24.0605 8.5765 24.0605C18.8654 24.0605 24.4942 15.1135 24.4942 7.3518C24.4942 7.09757 24.4867 6.84414 24.4753 6.59392C25.5735 5.77268 26.5202 4.73651 27.2677 3.55277Z" fill="#F0E5C9"/>
<path d="M61.2674 0C58.0962 0 55.0549 1.25975 52.8125 3.50212C50.5702 5.74449 49.3104 8.78579 49.3104 11.957C49.3104 15.1282 50.5702 18.1695 52.8125 20.4118C55.0549 22.6542 58.0962 23.914 61.2674 23.914C64.4386 23.914 67.4799 22.6542 69.7223 20.4118C71.9646 18.1695 73.2244 15.1282 73.2244 11.957C73.2244 8.78579 71.9646 5.74449 69.7223 3.50212C67.4799 1.25975 64.4386 0 61.2674 0Z" fill="#F0E5C9"/>
<path d="M62.886 15.1251H65.9804L66.4662 11.9817H62.8854V10.2637C62.8854 8.95784 63.3121 7.7999 64.5336 7.7999H66.4964V5.05672C66.1515 5.01015 65.4222 4.9082 64.044 4.9082C61.1661 4.9082 59.4789 6.428 59.4789 9.89049V11.9817H56.5205V15.1251H59.4789V23.765C60.0648 23.8531 60.6582 23.9129 61.2674 23.9129C61.8181 23.9129 62.3555 23.8625 62.886 23.7908V15.1251Z" fill="black"/>
<path d="M99.447 7.38069H104.146V23.3557H99.447V7.38069ZM101.782 5.50127H101.756C100.354 5.50127 99.447 4.45632 99.447 3.15106C99.447 1.81762 100.382 0.802734 101.809 0.802734C103.239 0.802734 104.119 1.81762 104.146 3.15106C104.146 4.45538 103.239 5.50127 101.782 5.50127ZM122 23.3557H117.301V14.8053C117.301 12.7398 116.15 11.3303 114.302 11.3303C112.891 11.3303 112.128 12.2813 111.758 13.2003C111.623 13.5292 111.663 14.4388 111.663 14.8984V23.3557H106.965V7.38069H111.663V9.83897C112.341 8.79025 113.402 7.38069 116.116 7.38069C119.478 7.38069 121.999 9.49503 121.999 14.2161L122 23.3557Z" fill="#F0E5C9"/>
</svg>
