<svg width="16" height="16" viewBox="0 0 16 16" fill="none" xmlns="http://www.w3.org/2000/svg">
<path d="M0 4.66659H3.33328V15.9997H0V4.66659ZM1.65664 3.33328H1.63797C0.643322 3.33328 0 2.59195 0 1.66597C0 0.719987 0.663322 0 1.67597 0C2.68995 0 3.31461 0.719987 3.33328 1.66597C3.33328 2.59129 2.68995 3.33328 1.65664 3.33328ZM15.9997 15.9997H12.6664V9.93383C12.6664 8.46852 11.8498 7.46854 10.5385 7.46854C9.53784 7.46854 8.99651 8.14319 8.73385 8.79518C8.63785 9.02851 8.66652 9.67383 8.66652 9.99983V15.9997H5.33324V4.66659H8.66652V6.41055C9.14717 5.66657 9.89983 4.66659 11.8251 4.66659C14.2104 4.66659 15.9991 6.16656 15.9991 9.51584L15.9997 15.9997Z" fill="black"/>
</svg>
