<svg width="11" height="12" viewBox="0 0 11 12" fill="none" xmlns="http://www.w3.org/2000/svg">
<path fill-rule="evenodd" clip-rule="evenodd" d="M10.3889 8.08826C9.62502 8.08826 8.89169 7.95885 8.20727 7.71942C8.14611 7.70004 8.07893 7.6871 8.01777 7.6871C7.85893 7.6871 7.70611 7.75181 7.58393 7.87471L6.23946 9.29823C4.51001 8.36651 3.09223 6.87179 2.21223 5.03413L3.55668 3.60413C3.72778 3.43589 3.77668 3.18354 3.70945 2.95706C3.48334 2.23236 3.36112 1.45588 3.36112 0.647063C3.36112 0.291177 3.08612 0 2.75001 0H0.611112C0.275001 0 0 0.291177 0 0.647063C0 6.72294 4.65057 11.6471 10.3889 11.6471C10.725 11.6471 11 11.3559 11 11V8.73528C11 8.37945 10.725 8.08826 10.3889 8.08826ZM2.15735 1.29467C2.20013 1.86408 2.29179 2.42702 2.43235 2.96408L1.69902 3.74702C1.45457 2.96408 1.29568 2.14878 1.24068 1.29467H2.15735ZM7.45553 9.84205C8.18887 10.1074 8.97104 10.2756 9.77771 10.3338V9.35675C9.23996 9.31793 8.70829 9.22085 8.18887 9.06556L7.45553 9.84205Z" fill="#F0E5C9"/>
</svg>
