<svg width="25" height="30" viewBox="0 0 25 30" fill="none" xmlns="http://www.w3.org/2000/svg">
<path d="M22.6975 26.8636C21.0564 29.5 16.5436 29.5 16.5436 29.5H12.5671C12.5671 29.5 10.603 29.3105 9.49019 28.8409C7.92826 28.1818 6.69749 26.2045 6.69749 26.2045L1.15903 16.3182C1.15903 16.3182 -0.524614 13.8022 1.49021 12.3636C3.50504 10.9251 5.18253 13.0227 5.18253 13.0227L7.92826 17.6364V2.47727C7.92826 2.47727 8.17441 0.5 10.0206 0.5C11.8667 0.5 12.1923 2.47727 12.1923 2.47727V10.3864C12.1923 10.3864 12.5936 9.06818 14.3283 9.06818C16.0629 9.06818 16.5 11.0455 16.5 11.0455C16.5 11.0455 17.036 9.72727 18.636 9.72727C20.236 9.72727 20.8077 11.7045 20.8077 11.7045C20.8077 11.7045 21.0821 10.3864 22.6975 10.3864C24.3129 10.3864 24.5 12.3636 24.5 12.3636V20.2727C24.5 20.2727 24.3385 24.2273 22.6975 26.8636Z" fill="white"/>
<path d="M20.8077 11.7045C20.8077 11.7045 21.0821 10.3864 22.6975 10.3864C24.3129 10.3864 24.5 12.3636 24.5 12.3636V20.2727C24.5 20.2727 24.3385 24.2273 22.6975 26.8636C21.0564 29.5 16.5436 29.5 16.5436 29.5H12.5671C12.5671 29.5 10.603 29.3105 9.49019 28.8409C7.92826 28.1818 6.69749 26.2045 6.69749 26.2045L1.15903 16.3182C1.15903 16.3182 -0.524614 13.8022 1.49021 12.3636C3.50504 10.9251 5.18253 13.0227 5.18253 13.0227L7.92826 17.6364V2.47727C7.92826 2.47727 8.17441 0.5 10.0206 0.5C11.8667 0.5 12.1923 2.47727 12.1923 2.47727V15.9503V10.3864C12.1923 10.3864 12.5936 9.06818 14.3283 9.06818C16.0629 9.06818 16.5 11.0455 16.5 11.0455M20.8077 11.7045V15.9503M20.8077 11.7045C20.8077 11.7045 20.236 9.72727 18.636 9.72727C17.036 9.72727 16.5 11.0455 16.5 11.0455M16.5 11.0455V15.9503" stroke="#002FE3" stroke-linecap="round" stroke-linejoin="round"/>
</svg>
