<svg width="15" height="15" viewBox="0 0 15 15" fill="none" xmlns="http://www.w3.org/2000/svg">
<g filter="url(#filter0_i_134_274)">
<path d="M6.53722 0.701292C6.8387 -0.233518 8.1613 -0.233521 8.46278 0.701289L9.53288 4.01939C9.6679 4.43804 10.058 4.72146 10.4979 4.72049L13.9842 4.71287C14.9665 4.71073 15.3752 5.96859 14.5793 6.54418L11.7543 8.58726C11.3978 8.84504 11.2488 9.30362 11.3857 9.72167L12.4703 13.0351C12.7758 13.9685 11.7058 14.7459 10.9125 14.1669L8.0964 12.1115C7.74109 11.8521 7.25891 11.8521 6.9036 12.1115L4.08754 14.1669C3.29417 14.7459 2.22417 13.9685 2.52974 13.0351L3.61433 9.72168C3.75118 9.30362 3.60218 8.84504 3.24574 8.58726L0.420724 6.54419C-0.375171 5.96859 0.0335309 4.71073 1.01575 4.71287L4.50213 4.72049C4.94201 4.72146 5.3321 4.43804 5.46712 4.01939L6.53722 0.701292Z" fill="url(#paint0_linear_134_274)"/>
</g>
<defs>
<filter id="filter0_i_134_274" x="0" y="0" width="15" height="18.4124" filterUnits="userSpaceOnUse" color-interpolation-filters="sRGB">
<feFlood flood-opacity="0" result="BackgroundImageFix"/>
<feBlend mode="normal" in="SourceGraphic" in2="BackgroundImageFix" result="shape"/>
<feColorMatrix in="SourceAlpha" type="matrix" values="0 0 0 0 0 0 0 0 0 0 0 0 0 0 0 0 0 0 127 0" result="hardAlpha"/>
<feOffset dy="4"/>
<feGaussianBlur stdDeviation="2"/>
<feComposite in2="hardAlpha" operator="arithmetic" k2="-1" k3="1"/>
<feColorMatrix type="matrix" values="0 0 0 0 0.144236 0 0 0 0 0.516667 0 0 0 0 0.422942 0 0 0 0.46 0"/>
<feBlend mode="normal" in2="shape" result="effect1_innerShadow_134_274"/>
</filter>
<linearGradient id="paint0_linear_134_274" x1="14.5251" y1="1.088" x2="3.56597" y2="16.2621" gradientUnits="userSpaceOnUse">
<stop stop-color="#B4D1D4"/>
<stop offset="1" stop-color="#B4D1D4" stop-opacity="0"/>
</linearGradient>
</defs>
</svg>
