<svg width="48" height="48" viewBox="0 0 48 48" fill="none" xmlns="http://www.w3.org/2000/svg">
<path d="M38.8629 22.1427L10.9961 8.20867C10.352 7.88846 9.58818 7.92378 8.97637 8.30205C8.36456 8.68033 7.99162 9.34786 7.99023 10.0672V37.9339C7.99134 38.6533 8.36432 39.3209 8.97631 39.699C9.58829 40.0772 10.3523 40.112 10.9961 39.7911L38.8629 25.8584C39.5664 25.5064 40.0108 24.7872 40.0108 24.0005C40.0108 23.2138 39.5664 22.4946 38.8629 22.1427Z" fill="#E5E6E6"/>
<mask id="mask0_0_9" style="mask-type:alpha" maskUnits="userSpaceOnUse" x="7" y="7" width="34" height="34">
<path d="M38.8629 22.1427L10.9961 8.20867C10.352 7.88846 9.58818 7.92378 8.97637 8.30205C8.36456 8.68033 7.99162 9.34786 7.99023 10.0672V37.9339C7.99134 38.6533 8.36432 39.3209 8.97631 39.699C9.58829 40.0772 10.3523 40.112 10.9961 39.7911L38.8629 25.8584C39.5664 25.5064 40.0108 24.7872 40.0108 24.0005C40.0108 23.2138 39.5664 22.4946 38.8629 22.1427Z" fill="white"/>
</mask>
<g mask="url(#mask0_0_9)">
</g>
</svg>
