<svg width="9" height="9" viewBox="0 0 9 9" fill="none" xmlns="http://www.w3.org/2000/svg">
<path d="M4.32232 0.873333C4.40163 0.737156 4.59836 0.737155 4.67768 0.873332L5.78388 2.77255C5.81293 2.82244 5.86162 2.85781 5.91804 2.87003L8.06614 3.33519C8.22016 3.36854 8.28095 3.55564 8.17595 3.67316L6.71152 5.3121C6.67305 5.35515 6.65446 5.41239 6.66027 5.46982L6.88167 7.65653C6.89755 7.81332 6.73839 7.92895 6.59418 7.8654L4.58292 6.97911C4.53009 6.95583 4.46991 6.95583 4.41708 6.97911L2.40582 7.8654C2.26161 7.92895 2.10245 7.81332 2.11833 7.65653L2.33973 5.46982C2.34554 5.41239 2.32695 5.35515 2.28848 5.3121L0.82405 3.67316C0.719048 3.55564 0.779841 3.36854 0.933863 3.33519L3.08196 2.87003C3.13838 2.85781 3.18707 2.82244 3.21612 2.77255L4.32232 0.873333Z" stroke="black" stroke-width="1.5" stroke-linecap="round"/>
</svg>
