<svg width="11" height="11" viewBox="0 0 11 11" fill="none" xmlns="http://www.w3.org/2000/svg">
<path d="M4.43252 0.948161C4.58253 -0.316187 6.41735 -0.316187 6.56736 0.948161L6.83715 3.22195C6.89568 3.71526 7.28462 4.1042 7.77793 4.16273L10.0517 4.43252C11.3161 4.58253 11.3161 6.41735 10.0517 6.56736L7.77793 6.83715C7.28462 6.89568 6.89568 7.28462 6.83715 7.77793L6.56736 10.0517C6.41735 11.3161 4.58253 11.3161 4.43252 10.0517L4.16273 7.77793C4.1042 7.28462 3.71526 6.89568 3.22196 6.83715L0.948161 6.56736C-0.316187 6.41735 -0.316187 4.58253 0.948161 4.43252L3.22195 4.16273C3.71526 4.1042 4.1042 3.71526 4.16273 3.22196L4.43252 0.948161Z" fill="#F9D64D"/>
</svg>
