<svg width="25" height="25" viewBox="0 0 25 25" fill="none" xmlns="http://www.w3.org/2000/svg">
<path d="M11.4668 0.917787C11.612 -0.306063 13.388 -0.306061 13.5332 0.917789L14.5554 9.53292C14.6121 10.0104 14.9886 10.3869 15.4661 10.4436L24.0812 11.4658C25.305 11.611 25.305 13.387 24.0812 13.5322L15.4661 14.5544C14.9886 14.6111 14.6121 14.9875 14.5554 15.4651L13.5332 24.0802C13.388 25.304 11.612 25.304 11.4668 24.0802L10.4446 15.465C10.3879 14.9875 10.0114 14.6111 9.53393 14.5544L0.918803 13.5322C-0.305047 13.387 -0.305045 11.611 0.918805 11.4658L9.53394 10.4436C10.0114 10.3869 10.3879 10.0104 10.4446 9.53292L11.4668 0.917787Z" fill="#F9D64D"/>
</svg>
