<svg width="38" height="37" viewBox="0 0 38 37" fill="none" xmlns="http://www.w3.org/2000/svg">
<g filter="url(#filter0_i_134_217)">
<path d="M16.3269 1.44399C17.5002 -0.48132 20.2956 -0.481322 21.469 1.44399L23.8229 5.30642C24.4403 6.31944 25.595 6.87551 26.7719 6.72659L31.2593 6.15878C33.4962 5.87575 35.2391 8.06123 34.4654 10.179L32.9132 14.4276C32.5062 15.5419 32.7913 16.7914 33.6416 17.6187L36.8834 20.7731C38.4993 22.3454 37.8773 25.0707 35.7392 25.7862L31.4498 27.2217C30.3248 27.5981 29.5257 28.6001 29.409 29.7807L28.964 34.282C28.7422 36.5257 26.2237 37.7386 24.3312 36.513L20.5345 34.0545C19.5387 33.4096 18.2571 33.4096 17.2614 34.0544L13.4647 36.513C11.5722 37.7386 9.05363 36.5257 8.83182 34.282L8.38685 29.7807C8.27014 28.6001 7.47108 27.5981 6.34608 27.2217L2.05668 25.7862C-0.0814541 25.0707 -0.703479 22.3454 0.912461 20.7731L4.15426 17.6187C5.0045 16.7914 5.28968 15.5419 4.8826 14.4276L3.33048 10.179C2.5568 8.06124 4.29967 5.87574 6.53652 6.15878L11.0239 6.72659C12.2009 6.87551 13.3556 6.31944 13.9729 5.30642L16.3269 1.44399Z" fill="url(#paint0_linear_134_217)"/>
</g>
<defs>
<filter id="filter0_i_134_217" x="0" y="0" width="37.7958" height="41.0145" filterUnits="userSpaceOnUse" color-interpolation-filters="sRGB">
<feFlood flood-opacity="0" result="BackgroundImageFix"/>
<feBlend mode="normal" in="SourceGraphic" in2="BackgroundImageFix" result="shape"/>
<feColorMatrix in="SourceAlpha" type="matrix" values="0 0 0 0 0 0 0 0 0 0 0 0 0 0 0 0 0 0 127 0" result="hardAlpha"/>
<feOffset dy="4"/>
<feGaussianBlur stdDeviation="2"/>
<feComposite in2="hardAlpha" operator="arithmetic" k2="-1" k3="1"/>
<feColorMatrix type="matrix" values="0 0 0 0 0.144236 0 0 0 0 0.516667 0 0 0 0 0.422942 0 0 0 0.46 0"/>
<feBlend mode="normal" in2="shape" result="effect1_innerShadow_134_217"/>
</filter>
<linearGradient id="paint0_linear_134_217" x1="34.2311" y1="4.58526" x2="10.3113" y2="37.705" gradientUnits="userSpaceOnUse">
<stop stop-color="#B4D1D4"/>
<stop offset="1" stop-color="#B4D1D4" stop-opacity="0"/>
</linearGradient>
</defs>
</svg>
