<svg width="16" height="16" viewBox="0 0 16 16" fill="none" xmlns="http://www.w3.org/2000/svg">
<path d="M6.9421 0.939242C7.09071 -0.313207 8.90825 -0.313212 9.05686 0.939235L9.59471 5.47233C9.65269 5.96099 10.038 6.34627 10.5266 6.40425L15.0597 6.9421C16.3122 7.09071 16.3122 8.90825 15.0597 9.05686L10.5266 9.59471C10.038 9.65269 9.65269 10.038 9.59471 10.5266L9.05686 15.0597C8.90825 16.3122 7.09071 16.3122 6.9421 15.0597L6.40425 10.5266C6.34627 10.038 5.96099 9.65269 5.47233 9.59471L0.939242 9.05686C-0.313207 8.90825 -0.313212 7.09071 0.939235 6.9421L5.47233 6.40425C5.96099 6.34627 6.34627 5.96099 6.40425 5.47233L6.9421 0.939242Z" fill="#F9D64D"/>
</svg>
